<?xml version="1.0" encoding="utf-8"?>
<!-- Generator: Adobe Illustrator 25.4.1, SVG Export Plug-In . SVG Version: 6.00 Build 0)  -->
<svg version="1.1" id="Layer_2_00000118370002226042467080000015934108529683144894_"
	 xmlns="http://www.w3.org/2000/svg" xmlns:xlink="http://www.w3.org/1999/xlink" x="0px" y="0px" viewBox="0 0 47.2 47.2"
	 style="enable-background:new 0 0 47.2 47.2;" xml:space="preserve">
<style type="text/css">
	.st0{opacity:0.2;fill-rule:evenodd;clip-rule:evenodd;fill:#404040;}
	.st1{fill-rule:evenodd;clip-rule:evenodd;fill:#FFFFFF;}
	.st2{fill-rule:evenodd;clip-rule:evenodd;fill:#CA1518;}
	.st3{fill-rule:evenodd;clip-rule:evenodd;fill:#121309;}
	.st4{fill-rule:evenodd;clip-rule:evenodd;fill:#BBB9BC;}
	.st5{fill-rule:evenodd;clip-rule:evenodd;fill:#121309;stroke:#1D1D1B;stroke-width:2.000000e-02;stroke-miterlimit:2.61;}
</style>
<g>
	<path class="st0" d="M39.3,0.3H7.9C3.7,0.3,0.4,4.2,0.4,9v14.5v0.1v14.5c0,4.8,3.4,8.7,7.5,8.7h31.4c4.1,0,7.5-3.9,7.5-8.7V23.6
		v-0.1V9C46.8,4.2,43.4,0.3,39.3,0.3z"/>
	<g>
		<path class="st1" d="M46.5,23.5v14.4c0,4.7-3.4,8.6-7.5,8.6H8c-4.1,0-7.5-3.9-7.5-8.6V23.5H46.5z"/>
		<path class="st2" d="M0.5,23.6V9.1c0-4.7,3.4-8.6,7.5-8.6h31c4.1,0,7.5,3.9,7.5,8.6v14.4L0.5,23.6z"/>
		<path class="st3" d="M23.5,5.9c4.6,0,8.9,1.8,12.1,5.1c6.7,6.8,6.7,17.7,0,24.4c-4.9,5-12.3,6.4-18.8,3.7l-7.8,2l1.7-6.4
			c-6.1-6.8-5.8-17.2,0.6-23.7C14.6,7.7,19,5.9,23.5,5.9z M34.2,12.3c-5.9-5.9-15.5-6-21.4-0.1l0,0l-0.1,0.1
			c-5.9,5.9-6,15.4-0.2,21.5l0.4,0.4l-1.1,4.3l5-1.3h0.6c5.8,2.6,12.5,1.3,17-3.2C40.2,28,40.2,18.3,34.2,12.3L34.2,12.3z"/>
		<path class="st4" d="M34.2,12.3c-5.9-5.9-15.5-6-21.4-0.1l0,0l-0.1,0.1c-5.9,5.9-6,15.4-0.2,21.5l0.4,0.4l-1.1,4.3l5-1.3h0.6
			c5.8,2.6,12.5,1.3,17-3.2C40.2,28,40.2,18.3,34.2,12.3L34.2,12.3z"/>
		<path class="st1" d="M23.5,8.4c8.1,0,14.7,6.6,14.7,14.7s-6.6,14.7-14.7,14.7c-8.1,0-14.7-6.6-14.7-14.7c0-3.9,1.6-7.6,4.3-10.4
			C15.9,9.9,19.6,8.4,23.5,8.4z M21.2,13c-1.3,1.9-2.4,4-3.3,6.2c1.5,0.7,3.1,1,4.7,1c0.1-3.3,0.2-6,0.3-6.9
			C22.3,13.3,21.7,13.2,21.2,13L21.2,13z M28.3,11.5c1.6,1.1,3.1,2.4,4.3,3.9c0.4-0.7,0.7-1.4,0.9-2.2l0,0c-1.3-1.3-2.8-2.3-4.4-3
			C28.9,10.7,28.6,11.2,28.3,11.5L28.3,11.5z M33.9,13.8c-0.2,0.8-0.6,1.5-1,2.2c0.8,1.1,1.4,2.2,1.9,3.5c0.3,0.9,0.6,1.8,0.8,2.8
			c0.6-0.7,1.1-1.4,1.5-2.2C36.5,17.7,35.4,15.6,33.9,13.8L33.9,13.8z M37.2,21c-0.4,0.7-0.9,1.4-1.5,2c0.3,1.9,0.5,3.9,0.4,5.9
			l0.1-0.1C37.3,26.3,37.6,23.6,37.2,21z M35.3,30.4c-1.4,1.2-3,2.2-4.7,3c0,0.5-0.1,1.1-0.1,1.7C32.5,34,34.1,32.4,35.3,30.4z
			 M29.9,35.4c0.1-0.6,0.1-1.2,0.1-1.8c-0.9,0.4-1.8,0.7-2.7,0.9c-1.2,0.3-2.5,0.4-3.8,0.5c0.1,0.7,0.1,1.4,0.2,2
			C25.9,36.9,28,36.4,29.9,35.4L29.9,35.4z M23.1,37c-0.1-0.6-0.1-1.3-0.2-2c-1.5,0-3.8-0.3-4.7-1.4c1.5,0.6,3,0.8,4.6,0.8
			c-0.1-1.9-0.2-4-0.3-6.1c-2.2,0-4.3-0.3-6.3-1.1c-0.2,2.6-0.2,5.2,0,7.8C18.3,36.3,20.7,37,23.1,37z M15.6,34.6
			c-0.2-2.5-0.2-5.1,0-7.6c-1.1-0.5-3.5-1.8-3.8-3.4c1.1,1.2,2.4,2.1,3.8,2.7c0.1-1.1,0.2-2.2,0.4-3.3c0.2-1.2,0.6-2.4,1-3.5
			c-0.9-0.4-3.6-2.4-3.5-3.6c1.1,1.2,2.3,2.2,3.7,3c0.9-2.1,1.9-4.2,3.2-6.1c-0.8-0.3-2.2-1.2-2.2-2c0.7,0.6,1.6,1.1,2.5,1.5
			c1.2,0.4,2.6,0.4,3.8,0.1c3.1-0.6,3.5-1.8,3.6-2.4c-7.3-2.5-15.2,1.4-17.7,8.7C8.6,24.5,10.6,31,15.6,34.6L15.6,34.6z M35.5,29.5
			c0.1-2,0.1-4-0.2-5.9c-0.6,0.7-1.3,1.2-2.1,1.8c-0.7,0.5-1.5,0.9-2.3,1.3c0,0.8,0.1,1.5,0.1,2.3c0,1.1-0.1,2.3-0.2,3.8
			C32.5,31.9,34,30.8,35.5,29.5L35.5,29.5z M35.1,22.8c-0.2-1.1-0.5-2.1-0.8-3.1c-0.4-1.1-1-2.2-1.7-3.2l-0.1,0.1
			c-0.8,1-1.7,1.8-2.8,2.4c0.4,1.2,0.7,2.5,0.9,3.7c0.1,1.2,0.2,2.2,0.3,3.1c0.7-0.3,1.4-0.7,2-1.1C33.7,24.2,34.5,23.5,35.1,22.8
			L35.1,22.8z M32.1,16c-1.2-1.6-2.7-2.9-4.4-4c-0.4,0.3-0.9,0.5-1.4,0.7c1.3,1.8,2.3,3.8,3.1,5.8c1-0.6,1.9-1.3,2.6-2.3L32.1,16
			L32.1,16z M17.7,19.8c-0.4,1.1-0.8,2.2-1,3.4c-0.2,1.1-0.3,2.3-0.4,3.4c2,0.8,4.2,1.2,6.3,1.1c0-2.4,0-4.8,0-7
			C20.9,20.8,19.2,20.4,17.7,19.8L17.7,19.8z M23.3,20.1c0.8,0,1.5-0.1,2.3-0.3c1.1-0.2,2.2-0.6,3.3-1.1c-0.8-2.1-1.9-4.1-3.2-5.9
			c-0.3,0.1-0.5,0.1-0.8,0.2c-0.4,0.1-0.9,0.1-1.3,0.2C23.5,14.1,23.4,16.7,23.3,20.1z M29.1,19.4c-1.1,0.5-2.2,0.9-3.4,1.1
			c-0.8,0.2-1.6,0.3-2.4,0.3c0,2.2-0.1,4.6,0,7c0.9,0,1.8-0.1,2.7-0.3c1.5-0.2,2.9-0.6,4.3-1.3c-0.1-0.9-0.2-2-0.3-3.3
			C29.8,21.7,29.5,20.5,29.1,19.4z M30.3,26.9c-1.4,0.6-2.8,1-4.2,1.2c-0.9,0.1-1.8,0.2-2.7,0.3c0,2.1,0.1,4.2,0.3,6.1
			c1.2-0.1,2.5-0.2,3.7-0.5c1-0.2,2-0.5,2.9-0.9c0.1-1.7,0.2-3,0.2-4.1C30.3,28.2,30.3,27.6,30.3,26.9L30.3,26.9z"/>
		<path class="st5" d="M22.9,34.8c-1.3-0.6-2.5-1.4-3.6-2.4c-2-2.1-3.4-4.7-4-7.5c-0.3-2.6-0.3-5.2-0.2-7.8c1.1-0.5,2.2-0.9,3.3-1.2
			c1.5-0.4,3-0.7,4.5-0.9c0,0,2.5,0.4,4.5,0.9c1.1,0.3,2.2,0.7,3.3,1.2c0.2,2.6,0.1,5.2-0.2,7.8c-0.6,2.8-2,5.4-4,7.5
			C25.5,33.3,24.3,34.2,22.9,34.8z"/>
		<path class="st1" d="M20,22.3h0.5v-1.2c0.1-1.3,1.2-2.3,2.5-2.2c1.2,0.1,2.1,1,2.2,2.2v1.2h0.7c0.3,0,0.6,0.3,0.6,0.6v4.8
			c0,0.3-0.3,0.6-0.6,0.6h-6c-0.3,0-0.6-0.3-0.6-0.6c0,0,0,0,0,0V23C19.3,22.6,19.6,22.4,20,22.3C19.9,22.4,19.9,22.4,20,22.3
			L20,22.3z M21.5,22.3h2.7v-1.2c-0.1-0.7-0.7-1.3-1.5-1.2c-0.7,0.1-1.2,0.6-1.2,1.2L21.5,22.3z M23.3,26.6L23.3,26.6l0.1-1
			c0.5-0.2,0.7-0.8,0.5-1.3c-0.2-0.5-0.8-0.7-1.3-0.5c-0.5,0.2-0.7,0.8-0.5,1.3c0.1,0.2,0.3,0.4,0.5,0.5v1H23.3z"/>
	</g>
</g>
</svg>
